<svg width="30" height="31" fill="none" xmlns="http://www.w3.org/2000/svg"><g filter="url(#a)" stroke="#818181" stroke-width="2" stroke-linecap="round" stroke-linejoin="round"><path d="M22.82 2H7.18A2.18 2.18 0 0 0 5 4.18v15.64A2.18 2.18 0 0 0 7.18 22h15.64A2.18 2.18 0 0 0 25 19.82V4.18A2.18 2.18 0 0 0 22.82 2ZM10 2v20M20 2v20M5 12h20M5 7h5M5 17h5M20 17h5M20 7h5"/></g><defs><filter id="a" x="-1" y="0" width="32" height="32" filterUnits="userSpaceOnUse" color-interpolation-filters="sRGB"><feFlood flood-opacity="0" result="BackgroundImageFix"/><feColorMatrix in="SourceAlpha" values="0 0 0 0 0 0 0 0 0 0 0 0 0 0 0 0 0 0 127 0" result="hardAlpha"/><feOffset dy="4"/><feGaussianBlur stdDeviation="2"/><feComposite in2="hardAlpha" operator="out"/><feColorMatrix values="0 0 0 0 0 0 0 0 0 0 0 0 0 0 0 0 0 0 0.25 0"/><feBlend in2="BackgroundImageFix" result="effect1_dropShadow_11117_44"/><feBlend in="SourceGraphic" in2="effect1_dropShadow_11117_44" result="shape"/></filter></defs></svg>